<svg width="18" height="18" viewBox="0 0 18 18" fill="none" xmlns="http://www.w3.org/2000/svg">
<path d="M16.292 5.12236V4.13375C16.292 3.58134 16.0726 3.05139 15.682 2.66044L14.2982 1.27665C13.9073 0.886084 13.3774 0.666669 12.8249 0.666626L6.34668 0.666626C5.7985 0.666626 5.35449 1.1331 5.35449 1.70829V5.12236C5.04688 4.94332 4.69434 4.83329 4.31283 4.83329H2.75033C1.59961 4.83329 0.666992 5.76591 0.666992 6.91663V15.25C0.666992 16.4007 1.59961 17.3333 2.75033 17.3333H4.31283C4.80827 17.3333 5.25716 17.153 5.61491 16.8642C5.97266 17.153 6.42155 17.3333 6.91699 17.3333H15.2503C16.401 17.3333 17.3337 16.4007 17.3337 15.25V6.91663C17.3337 6.14742 16.9121 5.48303 16.292 5.12236ZM4.83366 15.25C4.83366 15.5371 4.59994 15.7708 4.31283 15.7708H2.75033C2.46322 15.7708 2.22949 15.5371 2.22949 15.25V6.91663C2.22949 6.62952 2.46322 6.39579 2.75033 6.39579H4.31283C4.59994 6.39579 4.83366 6.62952 4.83366 6.91663V15.25ZM6.91699 2.22913H12.6462V3.79163C12.6462 4.07939 12.8792 4.31246 13.167 4.31246H14.7295V6.91663H6.91699V2.22913ZM15.7712 15.25C15.7712 15.5371 15.5374 15.7708 15.2503 15.7708H6.91699C6.62988 15.7708 6.39616 15.5371 6.39616 15.25V8.47913H15.7712V15.25ZM12.1253 11.6041H13.167C13.4548 11.6041 13.6878 11.3711 13.6878 11.0833V10.0416C13.6878 9.75387 13.4548 9.52079 13.167 9.52079H12.1253C11.8376 9.52079 11.6045 9.75387 11.6045 10.0416V11.0833C11.6045 11.3711 11.8376 11.6041 12.1253 11.6041ZM9.00033 14.7291H10.042C10.3298 14.7291 10.5628 14.4961 10.5628 14.2083V13.1666C10.5628 12.8789 10.3298 12.6458 10.042 12.6458H9.00033C8.71257 12.6458 8.47949 12.8789 8.47949 13.1666V14.2083C8.47949 14.4961 8.71257 14.7291 9.00033 14.7291ZM9.00033 11.6041H10.042C10.3298 11.6041 10.5628 11.3711 10.5628 11.0833V10.0416C10.5628 9.75387 10.3298 9.52079 10.042 9.52079H9.00033C8.71257 9.52079 8.47949 9.75387 8.47949 10.0416V11.0833C8.47949 11.3711 8.71257 11.6041 9.00033 11.6041ZM12.1253 14.7291H13.167C13.4548 14.7291 13.6878 14.4961 13.6878 14.2083V13.1666C13.6878 12.8789 13.4548 12.6458 13.167 12.6458H12.1253C11.8376 12.6458 11.6045 12.8789 11.6045 13.1666V14.2083C11.6045 14.4961 11.8376 14.7291 12.1253 14.7291Z" fill="#9CAEED"/>
</svg>
