<svg width="132" height="100" viewBox="0 0 132 100" fill="none" xmlns="http://www.w3.org/2000/svg">
<rect x="128" width="4" height="4" rx="2" fill="#7580A0"/>
<rect x="96" width="4" height="4" rx="2" fill="#7580A0"/>
<rect x="64" width="4" height="4" rx="2" fill="#7580A0"/>
<rect x="32" width="4" height="4" rx="2" fill="#7580A0"/>
<rect width="4" height="4" rx="2" fill="#7580A0"/>
<rect x="128" y="32" width="4" height="4" rx="2" fill="#7580A0"/>
<rect x="96" y="32" width="4" height="4" rx="2" fill="#7580A0"/>
<rect x="64" y="32" width="4" height="4" rx="2" fill="#7580A0"/>
<rect x="32" y="32" width="4" height="4" rx="2" fill="#7580A0"/>
<rect y="32" width="4" height="4" rx="2" fill="#7580A0"/>
<rect x="32" y="64" width="4" height="4" rx="2" fill="#7580A0"/>
<rect y="64" width="4" height="4" rx="2" fill="#7580A0"/>
<rect x="32" y="96" width="4" height="4" rx="2" fill="#7580A0"/>
<rect y="96" width="4" height="4" rx="2" fill="#7580A0"/>
</svg>
