<svg width="95" height="65" viewBox="0 0 95 65" fill="none" xmlns="http://www.w3.org/2000/svg">
<path d="M13.8208 25.483C11.6382 23.3462 9.49369 21.2473 7.2958 19.0876C7.28053 19.2777 7.26527 19.3842 7.26527 19.4982C7.22711 21.0039 7.18132 22.5096 7.1508 24.0154C7.14317 24.2967 7.05159 24.4792 6.8379 24.6541C4.68579 26.4184 2.54895 28.1903 0.404474 29.9622C0.305264 30.0458 0.19079 30.1295 0.0381579 30.2511C0.0381579 20.1294 0.0381579 10.0913 0.0381579 0.0532323C0.0534211 0.0456277 0.0610527 0.0380231 0.0763159 0.0304184C0.0839475 0.0304184 0.0992106 0.0304184 0.114474 0.0380231C0.137369 0.0456277 0.152632 0.0608369 0.175526 0.0760461C0.206053 0.0988599 0.228948 0.129278 0.259474 0.152092C6.79211 6.56278 13.3324 12.9811 19.865 19.3918C19.8727 19.3994 19.8879 19.407 19.8955 19.4146C19.9108 19.4222 19.9184 19.4222 19.9795 19.4374C26.5656 12.9735 33.1669 6.49434 39.7835 0C39.875 0.304184 39.8979 38.6162 39.814 39.0801C39.7377 39.0345 39.6614 38.9964 39.6003 38.9508C37.3871 37.1257 35.1816 35.293 32.9685 33.4755C32.77 33.3158 32.7471 33.1333 32.7471 32.9128C32.709 28.4945 32.6708 24.0762 32.6327 19.6579C32.6327 19.4982 32.625 19.3385 32.6174 19.1788C32.5869 19.1712 32.564 19.156 32.5335 19.1484C21.7119 29.7644 10.9055 40.3729 0.0305263 51.0497C0.0152632 50.8292 0.00763159 50.7075 0.00763159 50.5859C0.00763159 46.8748 0.00763159 43.1714 0 39.4603C0 39.1713 0.091579 38.966 0.297632 38.7683C4.68579 34.4717 9.05869 30.1675 13.4392 25.8709C13.5537 25.7568 13.6682 25.6351 13.8208 25.483Z" fill="white"/>
<path d="M82.2631 52.9992C83.5452 51.0524 84.7968 49.1589 86.056 47.2577C85.9492 47.0904 85.85 46.9383 85.7508 46.7938C84.7739 45.3414 83.7971 43.8965 82.8126 42.4516C82.6676 42.2387 82.5989 42.0257 82.6905 41.7596C82.805 41.752 82.9195 41.7368 83.0263 41.7368C83.9039 41.7368 84.7816 41.7444 85.6592 41.7292C85.9034 41.7292 86.0484 41.7976 86.1705 42.0181C86.6589 42.8775 87.1702 43.7216 87.6816 44.5733C87.7502 44.6874 87.8266 44.8014 87.9334 44.9687C88.1624 44.5961 88.3531 44.2767 88.5516 43.9497C88.9408 43.2957 89.33 42.6417 89.7116 41.9877C89.8031 41.8356 89.8947 41.7368 90.0931 41.7444C91.0624 41.752 92.0239 41.752 92.9932 41.752C93.0389 41.752 93.0924 41.7672 93.1458 41.7824C93.2603 42.0562 93.1687 42.2691 93.016 42.4896C92.0316 43.9497 91.0471 45.4098 90.0703 46.8699C89.9863 46.9992 89.9024 47.1208 89.8108 47.2729C89.9787 47.5315 90.1389 47.7824 90.3068 48.0334C91.3371 49.5999 92.3674 51.1665 93.3976 52.733C93.5426 52.9536 93.6647 53.1665 93.5579 53.4631C93.4739 53.4707 93.3824 53.4935 93.2832 53.4935C92.3445 53.4935 91.4058 53.4859 90.4595 53.5011C90.2229 53.5011 90.0931 53.4175 89.9787 53.2197C89.391 52.2083 88.7958 51.2121 88.2005 50.2083C88.1242 50.079 88.0403 49.9574 87.9258 49.7748C87.8037 49.9726 87.7197 50.1018 87.6358 50.2463C87.0481 51.2425 86.4681 52.2311 85.8881 53.2273C85.7813 53.4022 85.6745 53.5011 85.4455 53.5011C83.4155 53.4935 81.3779 53.4935 79.3479 53.4935C79.2639 53.4935 79.1723 53.4783 79.0655 53.4707C78.8442 53.0068 78.6152 52.5429 78.3863 52.0638C76.9134 52.0638 75.4558 52.0638 73.9752 52.0638C73.7539 52.5277 73.5326 52.9916 73.3113 53.4631C72.2352 53.4631 71.1821 53.4631 70.1213 53.4631C69.9992 53.1741 70.1213 52.946 70.2281 52.7178C70.7776 51.5619 71.3194 50.406 71.8689 49.2501C73.0137 46.8243 74.166 44.3984 75.3031 41.9725C75.4329 41.6987 75.5855 41.5923 75.8831 41.6227C76.0968 41.6455 76.3181 41.6455 76.5318 41.6227C76.8066 41.5999 76.9592 41.6911 77.0813 41.9573C77.5773 43.0524 78.0963 44.1398 78.6 45.2273C79.7447 47.6836 80.8971 50.1323 82.0495 52.5886C82.1029 52.695 82.1716 52.8167 82.2631 52.9992ZM77.3866 49.4174C76.9744 48.4745 76.6005 47.5999 76.2037 46.7026C75.9289 47.1056 75.0894 49.1361 75.0665 49.4174C75.8144 49.4174 76.5623 49.4174 77.3866 49.4174Z" fill="white"/>
<path d="M68.9696 41.6904C68.9696 45.6372 68.9696 49.5308 68.9696 53.4548C67.9546 53.4548 66.9624 53.4548 65.9093 53.4548C65.9093 51.6905 65.9093 49.9414 65.9093 48.1924C65.8788 48.1848 65.8559 48.1696 65.8253 48.162C65.5353 48.4509 65.2453 48.7475 64.963 49.0441C64.5127 49.508 64.0701 49.9795 63.6274 50.4433C63.2993 50.7779 63.1238 50.7779 62.8109 50.4509C62.1316 49.7437 61.4601 49.0441 60.7809 48.3445C60.7274 48.2912 60.674 48.2456 60.5595 48.1467C60.5138 48.641 60.5443 49.0821 60.5366 49.5156C60.529 49.949 60.5366 50.3749 60.5366 50.8084C60.5366 51.2494 60.5366 51.6905 60.5366 52.1392C60.5366 52.565 60.5366 52.9985 60.5366 53.4167C60.2314 53.5156 57.858 53.5232 57.4688 53.4396C57.4688 49.5536 57.4688 45.66 57.4688 41.7132C57.8045 41.7132 58.1327 41.698 58.4609 41.7208C58.5677 41.7285 58.6745 41.8425 58.7585 41.9338C59.7735 43.0288 60.7809 44.1315 61.7959 45.2342C62.2614 45.7361 62.7269 46.238 63.2153 46.7627C63.3222 46.6638 63.4138 46.5802 63.4977 46.4965C64.8943 44.9756 66.2909 43.4547 67.6798 41.9262C67.8172 41.7741 67.9622 41.6904 68.1759 41.7056C68.4277 41.698 68.6872 41.6904 68.9696 41.6904Z" fill="white"/>
<path d="M43.3877 47.6448C43.403 46.1163 43.7616 44.7474 44.7385 43.5839C45.5016 42.6714 46.4709 42.063 47.6156 41.7512C49.5006 41.2341 51.3017 41.4318 52.9501 42.5041C54.3543 43.4166 55.1174 44.7474 55.3922 46.3748C55.583 47.5155 55.5372 48.6562 55.1632 49.7513C54.3848 52.0022 52.7669 53.2722 50.4316 53.6296C49.203 53.8197 47.9972 53.6828 46.8448 53.1962C45.2269 52.5117 44.1737 51.3102 43.6701 49.6372C43.464 48.968 43.4106 48.2836 43.3877 47.6448ZM48.9206 44.4508C48.1574 44.4965 47.2264 45.0364 46.7609 46.1847C46.3411 47.2265 46.364 48.2912 46.9059 49.3026C47.4401 50.2836 48.3101 50.7551 49.4014 50.7703C50.4622 50.7855 51.3322 50.3368 51.8893 49.4243C52.4693 48.4813 52.5151 47.4699 52.2022 46.4357C51.8435 45.2113 50.653 44.3672 48.9206 44.4508Z" fill="white"/>
<path d="M29.1698 41.7435C30.223 41.7435 31.2151 41.7435 32.1919 41.7435C32.2835 42.0401 32.2988 53.082 32.1996 53.5079C31.9477 53.5079 31.6806 53.5307 31.4211 53.5003C31.3143 53.4851 31.1998 53.3862 31.1159 53.3025C30.3603 52.5725 29.6048 51.8349 28.8569 51.0972C27.7275 49.9869 26.598 48.8691 25.4685 47.7588C25.3922 47.6827 25.3006 47.6067 25.1632 47.485C25.1174 47.9337 25.148 48.3215 25.1403 48.7094C25.1327 49.1048 25.1403 49.4926 25.1403 49.8881C25.1403 50.2911 25.1403 50.6942 25.1403 51.1048C25.1403 51.5003 25.1403 51.8881 25.1403 52.2835C25.1403 52.6714 25.1403 53.0592 25.1403 53.4622C24.0948 53.4622 23.0951 53.4622 22.0801 53.4622C22.0801 49.5383 22.0801 45.6371 22.0801 41.6827C22.393 41.6827 22.683 41.6675 22.9653 41.6903C23.0646 41.6979 23.1561 41.8044 23.2401 41.8804C24.3696 42.9375 25.4914 43.9945 26.6209 45.0592C27.3611 45.7512 28.0938 46.4508 28.834 47.1428C28.9103 47.2189 29.0019 47.2797 29.1546 47.4014C29.1851 46.8767 29.1698 46.4204 29.1698 45.9565C29.1698 45.485 29.1698 45.0211 29.1698 44.5496C29.1698 44.0934 29.1698 43.6371 29.1698 43.1808C29.1698 42.7093 29.1698 42.2454 29.1698 41.7435Z" fill="white"/>
<path d="M41.6396 47.006C41.6396 47.9033 41.6396 48.7702 41.6396 49.6828C40.3956 49.6828 39.1746 49.6828 37.8924 49.6828C37.8848 50.1391 37.8848 50.5497 37.8772 50.9604C37.8772 51.3634 37.8772 51.7741 37.8772 52.1771C37.8772 52.5954 37.8772 53.006 37.8772 53.4547C36.8469 53.4547 35.8472 53.4547 34.8551 53.4547C34.7711 53.1581 34.7559 42.1466 34.8474 41.7588C37.259 41.7588 39.6782 41.7588 42.1203 41.7588C42.1203 42.6333 42.1203 43.485 42.1203 44.39C40.7238 44.428 39.3272 44.3824 37.9001 44.4128C37.8543 45.2645 37.8848 46.0934 37.8772 46.9755C39.1517 47.0136 40.388 46.9527 41.6396 47.006Z" fill="white"/>
<path d="M13.9225 53.4323C13.9149 53.3182 13.9072 53.2194 13.9072 53.1205C13.9072 52.4361 13.9072 51.7593 13.9072 51.0368C14.3956 50.9532 14.8841 51.0445 15.3801 50.976C15.3801 48.7327 15.3801 46.5121 15.3801 44.2459C14.9528 44.2459 14.5254 44.2459 14.1133 44.2459C14.0141 43.9265 13.9988 42.2003 14.0828 41.744C15.983 41.7212 17.8909 41.7364 19.837 41.7364C19.8751 42.5805 19.8599 43.379 19.8446 44.2307C19.3943 44.2307 18.967 44.2307 18.5167 44.2307C18.5167 46.4969 18.5167 48.7174 18.5167 50.9988C18.9899 50.9988 19.463 50.9988 19.9667 50.9988C19.9667 51.8429 19.9667 52.6414 19.9667 53.4247C19.692 53.4931 14.4185 53.516 13.9225 53.4323Z" fill="white"/>
<path d="M67.5573 58.8386C67.2444 58.9222 66.9544 59.0059 66.6415 59.0895C66.5881 58.983 66.5423 58.8918 66.5118 58.8005C66.2447 58.0325 65.7105 57.5458 64.9092 57.3861C63.8942 57.196 62.9326 57.3024 62.116 58.0097C61.7649 58.3138 61.536 58.7093 61.3834 59.1427C61.0781 60.0021 61.0552 60.8766 61.2536 61.7587C61.5665 63.1276 62.5128 63.8196 63.8713 63.9641C64.7794 64.0553 65.6036 63.7968 66.3668 63.3253C66.5652 63.2036 66.6415 63.0591 66.6339 62.831C66.6186 62.4279 66.6263 62.0249 66.6263 61.5686C65.8021 61.5686 65.0084 61.5686 64.1918 61.5686C64.1918 61.2264 64.1918 60.945 64.1918 60.6637C64.4665 60.5876 67.0765 60.5648 67.6871 60.6332C67.6947 60.7321 67.7176 60.8386 67.7176 60.945C67.7176 61.7511 67.71 62.5648 67.7252 63.3709C67.7252 63.599 67.6489 63.7435 67.4657 63.8804C66.5652 64.542 65.5502 64.9755 64.436 64.9983C63.0547 65.0287 61.7955 64.6485 60.8721 63.523C60.3607 62.8994 60.1089 62.1618 60.0173 61.3633C59.8876 60.2682 60.0555 59.2188 60.5897 58.2454C60.9789 57.5306 61.5513 57.0058 62.3144 56.7093C63.5355 56.2454 64.7718 56.1998 65.9852 56.7321C66.8476 57.1047 67.4352 57.9108 67.5573 58.8386Z" fill="white"/>
<path d="M29.1626 60.74C29.5747 60.9529 29.7655 61.2571 29.9258 61.5917C30.3989 62.5727 30.8645 63.5537 31.33 64.5423C31.3605 64.5955 31.3758 64.6563 31.4216 64.7704C31.185 64.778 30.9789 64.7932 30.7729 64.7932C29.9945 64.778 30.1929 64.9073 29.8724 64.2001C29.5518 63.4852 29.2389 62.7628 28.926 62.0479C28.8574 61.8959 28.781 61.7514 28.6971 61.6145C28.5139 61.3255 28.2545 61.1658 27.911 61.1582C27.56 61.1506 27.2089 61.1582 26.8197 61.1582C26.8197 62.3825 26.8197 63.5689 26.8197 64.7704C26.4152 64.7704 26.0566 64.7704 25.6826 64.7704C25.6826 62.0784 25.6826 59.4091 25.6826 56.7247C25.7437 56.7095 25.7971 56.6715 25.8581 56.6791C26.7968 56.6943 27.7355 56.7019 28.6742 56.7323C28.9337 56.7399 29.2008 56.8084 29.4526 56.892C30.3455 57.181 30.7576 57.8046 30.8034 58.7399C30.8492 59.759 30.2005 60.4206 29.4374 60.6487C29.3687 60.6563 29.3153 60.6867 29.1626 60.74ZM26.8274 60.1848C27.3845 60.162 27.9034 60.1468 28.4224 60.1012C28.6055 60.086 28.7887 60.0023 28.9566 59.9187C29.4603 59.6601 29.6205 59.2114 29.5595 58.6791C29.506 58.1924 29.1931 57.911 28.7505 57.7742C28.5597 57.7133 28.3537 57.6829 28.1553 57.6677C27.7889 57.6525 27.4226 57.6601 27.0563 57.6601C26.9876 57.6601 26.9189 57.6905 26.835 57.7057C26.8274 58.5194 26.8274 59.3103 26.8274 60.1848Z" fill="white"/>
<path d="M76.5777 60.0554C77.9209 60.0554 79.1801 60.0554 80.4851 60.0554C80.4851 58.9223 80.4851 57.8196 80.4851 56.6865C80.8743 56.6865 81.2254 56.6865 81.5764 56.6865C81.6451 56.9603 81.668 64.3368 81.5917 64.7626C81.233 64.7626 80.8743 64.7626 80.4851 64.7626C80.4851 63.5383 80.4851 62.3368 80.4851 61.1505C80.1951 61.0516 77.089 61.0288 76.593 61.12C76.593 62.3216 76.593 63.5307 76.593 64.7626C76.1885 64.7626 75.8298 64.7626 75.4482 64.7626C75.4482 62.0706 75.4482 59.409 75.4482 56.7398C75.7153 56.6409 76.1122 56.6333 76.5701 56.7094C76.5777 57.812 76.5777 58.9223 76.5777 60.0554Z" fill="white"/>
<path d="M43.0592 61.0666C42.0442 61.0666 41.0597 61.0666 40.0828 61.0666C39.9913 61.3632 39.9607 63.0058 40.0294 63.7815C41.1284 63.8347 42.2426 63.7739 43.3721 63.8195C43.3721 64.1465 43.3721 64.4431 43.3721 64.7701C41.8686 64.7701 40.3881 64.7701 38.9152 64.7701C38.8389 64.4811 38.816 57.2871 38.8847 56.732C39.1594 56.6483 42.9523 56.6331 43.3721 56.7168C43.3721 57.0058 43.3721 57.3023 43.3721 57.6445C42.2502 57.6445 41.1513 57.6445 40.0294 57.6445C40.0294 58.4658 40.0294 59.2491 40.0294 60.0704C41.0368 60.0704 42.0289 60.0704 43.0592 60.0704C43.0592 60.4126 43.0592 60.7092 43.0592 61.0666Z" fill="white"/>
<path d="M13.9219 56.6866C15.3566 56.6866 16.7608 56.6866 18.1879 56.6866C18.1879 57.006 18.1879 57.3026 18.1879 57.6448C17.15 57.6448 16.1274 57.6448 15.0819 57.6448C15.0819 58.4661 15.0819 59.2494 15.0819 60.0707C16.0664 60.0707 17.0356 60.0707 18.0353 60.0707C18.0353 60.4129 18.0353 60.7095 18.0353 61.0593C17.0585 61.0593 16.0816 61.0593 15.0666 61.0593C15.0666 62.3141 15.0666 63.5232 15.0666 64.7627C14.6621 64.7627 14.3035 64.7627 13.9219 64.7627C13.9219 62.0707 13.9219 59.4091 13.9219 56.6866Z" fill="white"/>
<path d="M92.5044 64.7932C92.1992 64.7932 91.9702 64.7932 91.7489 64.7932C91.6344 64.7932 91.5199 64.7932 91.352 64.7932C91.3444 64.2989 91.3444 63.835 91.3444 63.3787C91.3444 62.9072 91.3444 62.4434 91.3444 61.9719C91.3444 61.4928 91.3444 61.0137 91.3444 60.527C91.3444 60.0555 91.3444 59.5916 91.3444 59.1201C91.3444 58.6563 91.3444 58.1848 91.3444 57.6753C90.4973 57.622 89.6655 57.6829 88.8184 57.6372C88.8184 57.3102 88.8184 57.0213 88.8184 56.7399C89.0855 56.6486 94.4123 56.6182 94.9999 56.7019C94.9999 56.9985 94.9999 57.295 94.9999 57.6448C94.1834 57.6448 93.3668 57.6448 92.5044 57.6448C92.5044 60.0479 92.5044 62.3901 92.5044 64.7932Z" fill="white"/>
<path d="M52.3318 64.7701C51.9655 64.7701 51.6144 64.7701 51.271 64.7701C51.1947 64.4811 51.1642 57.386 51.2405 56.694C51.5915 56.6331 51.9502 56.6712 52.3394 56.6712C52.3318 59.3784 52.3318 62.0628 52.3318 64.7701Z" fill="white"/>
</svg>
