<svg width="18" height="18" viewBox="0 0 18 18" fill="none" xmlns="http://www.w3.org/2000/svg">
<path fill-rule="evenodd" clip-rule="evenodd" d="M8.14586 4.21197C8.63416 4.75324 8.47934 5.36645 8.04758 5.94829C7.94522 6.08624 7.82723 6.22216 7.68472 6.37193C7.61632 6.44382 7.56298 6.49789 7.45142 6.60956C7.19805 6.86318 6.98506 7.07628 6.81244 7.24889C6.72873 7.33259 7.30025 8.47465 8.40942 9.5849C9.51797 10.6946 10.66 11.2665 10.7441 11.1823L11.3826 10.5434C11.7342 10.1914 11.9205 10.0216 12.1764 9.85374C12.7083 9.50474 13.2886 9.4099 13.7779 9.84749C15.3758 10.9904 16.2799 11.6918 16.7229 12.1521C17.5869 13.0498 17.4737 14.4317 16.7278 15.22C16.4692 15.4934 16.1412 15.8215 15.7539 16.1949C13.411 18.5392 8.46624 17.1125 4.67665 13.3192C0.886194 9.52504 -0.539665 4.57985 1.79838 2.24055C2.21812 1.81421 2.35652 1.67588 2.76531 1.27308C3.52642 0.523136 4.97206 0.405711 5.85086 1.27382C6.31311 1.73045 7.05006 2.67865 8.14586 4.21197ZM12.5606 11.7218L11.9219 12.3608C10.8363 13.447 8.98756 12.5211 7.2313 10.7632C5.47384 9.00397 4.549 7.15587 5.63495 6.07C5.80734 5.89763 6.02013 5.68473 6.2733 5.4313C6.37545 5.32905 6.42218 5.28169 6.47826 5.22274C6.55468 5.14243 6.61747 5.0719 6.66774 5.00948C5.69661 3.6567 5.03644 2.8114 4.68055 2.45984C4.49676 2.27828 4.08521 2.31171 3.93412 2.46059C3.53116 2.85764 3.3987 2.99002 2.98065 3.41461C1.47706 4.91903 2.62811 8.91114 5.85476 12.141C9.0804 15.3698 13.0719 16.5214 14.5869 15.0057C14.9682 14.6379 15.279 14.327 15.5181 14.0742C15.6909 13.8916 15.7218 13.5147 15.523 13.3081C15.1919 12.9641 14.3813 12.332 12.9816 11.3269C12.8795 11.409 12.7541 11.5281 12.5606 11.7218Z" fill="#9CAEED"/>
</svg>
