<svg width="20" height="20" viewBox="0 0 20 20" fill="none" xmlns="http://www.w3.org/2000/svg">
<path d="M18.6784 6.31992C18.2505 5.89164 17.5701 5.86472 17.11 6.23961C17.0435 6.29383 17.095 6.24605 16.082 7.25906L18.7116 9.88864L19.6566 8.95539C20.1135 8.49848 20.1135 7.75504 19.6566 7.29809L18.6784 6.31992Z" fill="#1F3167"/>
<path d="M10.6897 12.7011L9.14287 16.0157C9.03869 16.239 9.08529 16.5036 9.25951 16.6778C9.43373 16.8521 9.69842 16.8986 9.92162 16.7944L13.2362 15.2476C13.3674 15.1864 12.9704 15.558 17.8777 10.7119L15.2534 8.08752C10.3878 12.9531 10.7521 12.5674 10.6897 12.7011Z" fill="#1F3167"/>
<path d="M14.2236 15.9676C14.0801 16.1093 13.9147 16.2243 13.732 16.3096L10.4174 17.8564C9.76559 18.1606 8.9693 18.0448 8.43113 17.5065C7.91039 16.9858 7.76973 16.1876 8.08113 15.5202L9.62797 12.2055C9.71484 12.0193 9.83258 11.8513 9.97785 11.706L14.9609 6.72289V1.75781C14.9609 0.788555 14.1724 0 13.2031 0H1.75781C0.788555 0 0 0.788555 0 1.75781V18.2422C0 19.2114 0.788555 20 1.75781 20H13.2031C14.1724 20 14.9609 19.2114 14.9609 18.2422V15.2394L14.2236 15.9676ZM3.12504 3.78906H11.875C12.1986 3.78906 12.461 4.05141 12.461 4.375C12.461 4.69859 12.1986 4.96094 11.875 4.96094H3.12504C2.80145 4.96094 2.5391 4.69859 2.5391 4.375C2.5391 4.05141 2.80145 3.78906 3.12504 3.78906ZM3.12504 6.91406H10C10.3236 6.91406 10.586 7.17641 10.586 7.5C10.586 7.82359 10.3236 8.08594 10 8.08594H3.12504C2.80145 8.08594 2.5391 7.82359 2.5391 7.5C2.5391 7.17641 2.80145 6.91406 3.12504 6.91406ZM2.5391 10.625C2.5391 10.3014 2.80145 10.0391 3.12504 10.0391H8.12504C8.44863 10.0391 8.71098 10.3014 8.71098 10.625C8.71098 10.9486 8.44863 11.2109 8.12504 11.2109H3.12504C2.80145 11.2109 2.5391 10.9486 2.5391 10.625Z" fill="#1F3167"/>
</svg>
