<svg width="12" height="10" viewBox="0 0 12 10" fill="none" xmlns="http://www.w3.org/2000/svg">
<path fill-rule="evenodd" clip-rule="evenodd" d="M9.1922 9.88945C9.3532 10.0035 9.5607 10.032 9.7457 9.96195C9.9307 9.89145 10.0667 9.73345 10.1077 9.54195C10.5422 7.49995 11.5962 2.33145 11.9917 0.473952C12.0217 0.333952 11.9717 0.188452 11.8617 0.0949521C11.7517 0.00145207 11.5992 -0.025548 11.4632 0.024952C9.3667 0.800952 2.9102 3.22345 0.271199 4.19995C0.103699 4.26195 -0.00530107 4.42295 0.000198927 4.59945C0.00619893 4.77645 0.125199 4.92995 0.296699 4.98145C1.4802 5.33545 3.0337 5.82795 3.0337 5.82795C3.0337 5.82795 3.7597 8.02045 4.1382 9.13545C4.1857 9.27545 4.2952 9.38545 4.4397 9.42345C4.5837 9.46095 4.7377 9.42145 4.8452 9.31995C5.4532 8.74595 6.3932 7.85845 6.3932 7.85845C6.3932 7.85845 8.1792 9.16795 9.1922 9.88945ZM3.6872 5.55095L4.5267 8.31995L4.7132 6.56645C4.7132 6.56645 7.9567 3.64095 9.8057 1.97345C9.8597 1.92445 9.8672 1.84245 9.8222 1.78495C9.7777 1.72745 9.6957 1.71395 9.6342 1.75295C7.4912 3.12145 3.6872 5.55095 3.6872 5.55095Z" fill="white"/>
</svg>
