<svg width="12" height="10" viewBox="0 0 12 10" fill="none" xmlns="http://www.w3.org/2000/svg">
<path d="M12 1.15413C11.5537 1.34988 11.0782 1.47963 10.5825 1.54263C11.0925 1.23813 11.4818 0.759628 11.6648 0.182878C11.1893 0.466378 10.6642 0.666628 10.1047 0.778378C9.65325 0.297628 9.00975 -0.00012207 8.30775 -0.00012207C6.94575 -0.00012207 5.84925 1.10538 5.84925 2.46063C5.84925 2.65563 5.86575 2.84313 5.90625 3.02163C3.861 2.92188 2.05125 1.94163 0.8355 0.448378C0.62325 0.816628 0.49875 1.23813 0.49875 1.69188C0.49875 2.54388 0.9375 3.29913 1.5915 3.73638C1.19625 3.72888 0.8085 3.61413 0.48 3.43338C0.48 3.44088 0.48 3.45063 0.48 3.46038C0.48 4.65588 1.33275 5.64888 2.451 5.87763C2.25075 5.93238 2.0325 5.95863 1.806 5.95863C1.6485 5.95863 1.4895 5.94963 1.34025 5.91663C1.659 6.89088 2.5635 7.60713 3.639 7.63038C2.802 8.28513 1.73925 8.67963 0.58875 8.67963C0.387 8.67963 0.1935 8.67063 0 8.64588C1.08975 9.34863 2.38125 9.74988 3.774 9.74988C8.301 9.74988 10.776 5.99988 10.776 2.74938C10.776 2.64063 10.7722 2.53563 10.767 2.43138C11.2552 2.08488 11.6655 1.65213 12 1.15413Z" fill="white"/>
</svg>
