<svg width="27" height="14" viewBox="0 0 27 14" fill="none" xmlns="http://www.w3.org/2000/svg">
<path d="M9.56397 13.7044C8.76362 13.833 6.53241 13.9962 5.75954 13.9962C2.32817 13.9962 0 13.1053 0 8.64514V0.515042C0.000736294 0.467939 0.0105564 0.421492 0.0289637 0.378373C0.0473711 0.33528 0.0736288 0.296372 0.106762 0.26397C0.13965 0.231542 0.178674 0.20625 0.221134 0.189583C0.263839 0.172915 0.309245 0.1652 0.35465 0.166864H3.2527C3.29811 0.164771 3.34376 0.172185 3.38646 0.188701C3.42917 0.205217 3.46844 0.230458 3.50157 0.262961C3.53446 0.295464 3.56097 0.334548 3.57913 0.377843C3.59729 0.421164 3.60686 0.467813 3.60735 0.515042V8.64514C3.60735 10.3013 4.14092 10.8408 5.40489 10.8408C5.97552 10.8389 6.54542 10.8012 7.11163 10.7279V0.515042C7.11187 0.467813 7.12144 0.421164 7.1396 0.377843C7.15776 0.334548 7.18427 0.295464 7.21741 0.262961C7.25054 0.230458 7.28956 0.205217 7.33227 0.188701C7.37497 0.172185 7.42062 0.164771 7.46627 0.166864H10.3459C10.4399 0.162577 10.5315 0.196719 10.6014 0.261852C10.6711 0.327009 10.7133 0.417962 10.7187 0.515042V12.2868C10.7187 13.3156 10.4156 13.5758 9.56397 13.7044Z" fill="white"/>
<path d="M16.2991 13.833H13.3829C13.2897 13.8307 13.2011 13.7906 13.1358 13.7213C13.0707 13.6522 13.0342 13.5594 13.0342 13.4631V0.515011C13.0352 0.468463 13.0447 0.422544 13.0626 0.379854C13.0806 0.337164 13.1066 0.298534 13.139 0.266207C13.1714 0.233881 13.2094 0.208463 13.2514 0.191418C13.2931 0.174372 13.338 0.166025 13.3829 0.166857H16.2991C16.3446 0.164739 16.3902 0.172153 16.4329 0.18867C16.4756 0.205186 16.5149 0.230451 16.5478 0.262954C16.5809 0.295432 16.6074 0.334516 16.6256 0.377837C16.6437 0.421132 16.6533 0.467807 16.6538 0.515011V13.4631C16.654 13.5115 16.6452 13.5594 16.6275 13.6043C16.6099 13.6492 16.5839 13.69 16.551 13.7246C16.5178 13.7588 16.4788 13.7861 16.4354 13.8047C16.3922 13.8234 16.3458 13.833 16.2991 13.833Z" fill="white"/>
<path d="M26.6088 13.6682C25.8001 13.9068 24.961 14.018 24.1201 13.9975C20.8492 13.9975 18.6455 12.1596 18.6455 7.94707V6.0651C18.6455 1.84007 20.8492 0.00202044 24.1201 0.00202044C24.961 -0.0166644 25.7996 0.0943347 26.6088 0.331362C26.8937 0.425467 27 0.478773 27 0.735998V3.09159C27 3.32996 26.8937 3.43974 26.6969 3.43974H26.6422C25.816 3.33987 24.9852 3.28543 24.1535 3.27665C23.1926 3.27665 22.3346 3.71578 22.3346 6.05254V7.93451C22.3346 10.2525 23.1894 10.7136 24.1535 10.7136C24.9852 10.7039 25.816 10.6484 26.6422 10.5473H26.6755C26.8878 10.5473 26.9786 10.6571 26.9786 10.8955V13.2635C27 13.502 26.8937 13.5772 26.6088 13.6682Z" fill="white"/>
</svg>
