<svg width="24" height="24" viewBox="0 0 24 24" fill="none" xmlns="http://www.w3.org/2000/svg">
<path d="M7 11H9V13H7V11ZM4 4H20V8H4V4ZM7 15H9V17H7V15ZM18 12C14.7 12 12 14.7 12 18C12 21.3 14.7 24 18 24C21.3 24 24 21.3 24 18C24 14.7 21.3 12 18 12ZM18 22C15.8 22 14 20.2 14 18C14 15.8 15.8 14 18 14C20.2 14 22 15.8 22 18C22 20.2 20.2 22 18 22ZM18.925 20.236L16.828 18.139L18.428 15.117L19.753 15.819L18.672 17.861L19.986 19.175L18.925 20.236Z" fill="#3E58A5"/>
<path d="M10.069 19H5V5H19V10.069C19.699 10.156 20.369 10.331 21 10.587V3H3V21H10.587C10.331 20.369 10.156 19.699 10.069 19Z" fill="#3E58A5"/>
<path d="M11 13H11.76C12.411 12.189 13.214 11.507 14.13 11H11V13Z" fill="#3E58A5"/>
</svg>
