<svg width="24" height="24" viewBox="0 0 24 24" fill="none" xmlns="http://www.w3.org/2000/svg">
<path d="M23.9996 22.6L22.1996 20.8C22.6996 20 22.9996 19 22.9996 18C22.9996 14.278 19.1116 11.616 15.0946 13.773C14.5376 14.072 14.0726 14.537 13.7736 15.094C11.6156 19.112 14.2776 23 17.9996 23C18.9996 23 19.9996 22.7 20.7996 22.2L22.5996 24L23.9996 22.6ZM20.0466 20.396C16.7586 22.342 13.6576 19.24 15.6036 15.953C15.6876 15.812 15.8126 15.687 15.9536 15.603C19.2416 13.657 22.3426 16.759 20.3966 20.046C20.3126 20.188 20.1876 20.313 20.0466 20.396Z" fill="#3E58A5"/>
<path d="M9 4H15" stroke="#3E58A5" stroke-width="2" stroke-miterlimit="10"/>
<path d="M2 14H12.26C13.525 12.188 15.622 11 18 11C19.488 11 20.866 11.467 22 12.259V4H2V14ZM12 10C12.552 10 13 10.448 13 11C13 11.552 12.552 12 12 12C11.448 12 11 11.552 11 11C11 10.448 11.448 10 12 10ZM11 18C11 17.305 11.105 16.634 11.294 16H2V20H11.294C11.105 19.366 11 18.695 11 18Z" fill="#3E58A5"/>
</svg>
