<svg width="24" height="24" viewBox="0 0 24 24" fill="none" xmlns="http://www.w3.org/2000/svg">
<path d="M12 10C11.4696 10 10.9609 10.2107 10.5858 10.5858C10.2107 10.9609 10 11.4696 10 12C10 12.5304 10.2107 13.0391 10.5858 13.4142C10.9609 13.7893 11.4696 14 12 14C12.5304 14 13.0391 13.7893 13.4142 13.4142C13.7893 13.0391 14 12.5304 14 12C14 11.4696 13.7893 10.9609 13.4142 10.5858C13.0391 10.2107 12.5304 10 12 10Z" fill="#3E58A5"/>
<path d="M12 2C6.477 2 2 6.477 2 12C2 17.523 6.477 22 12 22C17.523 22 22 17.523 22 12C22 6.477 17.523 2 12 2ZM17 16C16.08 16 15.265 15.575 14.714 14.92C14 15.585 13.05 16 12 16C9.794 16 8 14.206 8 12C8 9.794 9.794 8 12 8C14.206 8 16 9.794 16 12V13C16 13.551 16.449 14 17 14C17.551 14 18 13.551 18 13V12C18 8.691 15.309 6 12 6C8.691 6 6 8.691 6 12C6 15.309 8.691 18 12 18H13C13.552 18 14 18.448 14 19C14 19.552 13.552 20 13 20H12C7.589 20 4 16.411 4 12C4 7.589 7.589 4 12 4C16.411 4 20 7.589 20 12V13C20 14.654 18.654 16 17 16Z" fill="#3E58A5"/>
</svg>
