<svg width="24" height="24" viewBox="0 0 24 24" fill="none" xmlns="http://www.w3.org/2000/svg">
<path d="M7 8C6.448 8 6 8.447 6 9C6 9.553 6.448 10 7 10C7.552 10 8 9.553 8 9C8 8.447 7.552 8 7 8ZM17 8C16.448 8 16 8.447 16 9C16 9.553 16.448 10 17 10C17.552 10 18 9.553 18 9C18 8.447 17.552 8 17 8Z" fill="#3E58A5"/>
<path d="M22 3V15H2V3H22ZM4 13H20V5H4V13Z" fill="#3E58A5"/>
<path d="M20.5 12C20.1022 12 19.7206 12.158 19.4393 12.4393C19.158 12.7206 19 13.1022 19 13.5C19 13.8978 19.158 14.2794 19.4393 14.5607C19.7206 14.842 20.1022 15 20.5 15C20.8978 15 21.2794 14.842 21.5607 14.5607C21.842 14.2794 22 13.8978 22 13.5C22 13.1022 21.842 12.7206 21.5607 12.4393C21.2794 12.158 20.8978 12 20.5 12ZM20.5 3C20.1022 3 19.7206 3.15804 19.4393 3.43934C19.158 3.72064 19 4.10218 19 4.5C19 4.89782 19.158 5.27936 19.4393 5.56066C19.7206 5.84196 20.1022 6 20.5 6C20.8978 6 21.2794 5.84196 21.5607 5.56066C21.842 5.27936 22 4.89782 22 4.5C22 4.10218 21.842 3.72064 21.5607 3.43934C21.2794 3.15804 20.8978 3 20.5 3ZM3.5 12C3.10218 12 2.72064 12.158 2.43934 12.4393C2.15804 12.7206 2 13.1022 2 13.5C2 13.8978 2.15804 14.2794 2.43934 14.5607C2.72064 14.842 3.10218 15 3.5 15C3.89782 15 4.27936 14.842 4.56066 14.5607C4.84196 14.2794 5 13.8978 5 13.5C5 13.1022 4.84196 12.7206 4.56066 12.4393C4.27936 12.158 3.89782 12 3.5 12ZM3.5 3C3.10218 3 2.72064 3.15804 2.43934 3.43934C2.15804 3.72064 2 4.10218 2 4.5C2 4.89782 2.15804 5.27936 2.43934 5.56066C2.72064 5.84196 3.10218 6 3.5 6C3.89782 6 4.27936 5.84196 4.56066 5.56066C4.84196 5.27936 5 4.89782 5 4.5C5 4.10218 4.84196 3.72064 4.56066 3.43934C4.27936 3.15804 3.89782 3 3.5 3ZM12 6C11.2044 6 10.4413 6.31607 9.87868 6.87868C9.31607 7.44129 9 8.20435 9 9C9 9.79565 9.31607 10.5587 9.87868 11.1213C10.4413 11.6839 11.2044 12 12 12C12.7956 12 13.5587 11.6839 14.1213 11.1213C14.6839 10.5587 15 9.79565 15 9C15 8.20435 14.6839 7.44129 14.1213 6.87868C13.5587 6.31607 12.7956 6 12 6ZM3.99 17L20.196 21.22L21.295 17H19.228L18.993 17.901C18.544 17.94 18.138 18.179 17.885 18.551L11.927 17H3.99Z" fill="#3E58A5"/>
</svg>
