<svg width="18" height="18" viewBox="0 0 18 18" fill="none" xmlns="http://www.w3.org/2000/svg">
<path d="M14.4237 17.9999C13.6394 17.9999 12.5377 17.7162 10.888 16.7945C8.88199 15.6696 7.33033 14.631 5.33512 12.641C3.41143 10.7185 2.47529 9.4738 1.16511 7.08967C-0.31503 4.39778 -0.062716 2.98675 0.21933 2.38369C0.555213 1.6629 1.051 1.2318 1.69183 0.803909C2.05582 0.56543 2.44101 0.360999 2.84251 0.193211C2.88269 0.175935 2.92006 0.159462 2.9534 0.144597C3.15228 0.055001 3.45361 -0.080397 3.8353 0.0642418C4.09002 0.159864 4.31743 0.355528 4.6734 0.707081C5.40343 1.42706 6.40103 3.03054 6.76906 3.81802C7.01615 4.34876 7.17967 4.69911 7.18007 5.09205C7.18007 5.55208 6.94865 5.90685 6.66781 6.28974C6.61518 6.36165 6.56295 6.43036 6.51232 6.49705C6.20657 6.89883 6.13948 7.01494 6.18367 7.22225C6.27327 7.6389 6.94142 8.87917 8.03947 9.97481C9.13752 11.0705 10.342 11.6964 10.7603 11.7856C10.9764 11.8318 11.095 11.7619 11.5096 11.4453C11.5691 11.3999 11.6301 11.3529 11.694 11.3059C12.1223 10.9873 12.4606 10.7619 12.9098 10.7619H12.9122C13.3031 10.7619 13.6378 10.9314 14.1922 11.2111C14.9154 11.5759 16.5671 12.5606 17.2915 13.2915C17.6439 13.6466 17.8404 13.8732 17.9364 14.1276C18.081 14.5104 17.9448 14.8106 17.856 15.0115C17.8412 15.0448 17.8247 15.0814 17.8074 15.1219C17.6383 15.5227 17.4327 15.9071 17.1931 16.2702C16.766 16.909 16.3333 17.4036 15.6109 17.7399C15.24 17.9154 14.834 18.0043 14.4237 17.9999Z" fill="#3E58A5"/>
</svg>
